<svg xmlns="http://www.w3.org/2000/svg" viewBox="0 0 512 512" role="img" aria-label="Refleksi Ambient Audio icon">
  <defs>
    <linearGradient id="bg" x1="0" x2="1" y1="0" y2="1">
      <stop offset="0%" stop-color="#f4b23a"/>
      <stop offset="55%" stop-color="#c77a14"/>
      <stop offset="100%" stop-color="#17120d"/>
    </linearGradient>
    <linearGradient id="panel" x1="0" x2="0" y1="0" y2="1">
      <stop offset="0%" stop-color="#2f2219"/>
      <stop offset="100%" stop-color="#17120d"/>
    </linearGradient>
  </defs>
  <rect width="512" height="512" rx="112" fill="url(#bg)"/>
  <rect x="56" y="56" width="400" height="400" rx="88" fill="url(#panel)" stroke="#f8f0db" stroke-opacity="0.15" stroke-width="8"/>
  <rect x="108" y="136" width="296" height="240" rx="34" fill="#1c140f" stroke="#e6a43a" stroke-width="10"/>
  <rect x="132" y="160" width="248" height="60" rx="18" fill="#2d2016"/>
  <circle cx="188" cy="190" r="16" fill="#7ef0d8"/>
  <circle cx="324" cy="190" r="16" fill="#7ef0d8"/>
  <path d="M148 292C171 268 191 268 214 292C237 316 257 316 280 292C303 268 323 268 346 292" fill="none" stroke="#f4b23a" stroke-width="18" stroke-linecap="round" stroke-linejoin="round"/>
  <path d="M148 330C171 306 191 306 214 330C237 354 257 354 280 330C303 306 323 306 346 330" fill="none" stroke="#7ef0d8" stroke-width="18" stroke-linecap="round" stroke-linejoin="round" opacity="0.9"/>
  <path d="M218 246L300 286L218 326Z" fill="#f8f0db"/>
  <circle cx="256" cy="256" r="158" fill="none" stroke="#f8f0db" stroke-opacity="0.08" stroke-width="4"/>
</svg>
